<svg xmlns="http://www.w3.org/2000/svg" viewBox="0 0 24 24" fill="currentColor">
  <path d="M12 .5C5.73.5.99 5.24.99 11.5c0 4.86 3.15 8.98 7.52 10.43.55.1.75-.23.75-.52 0-.26-.01-1.13-.02-2.05-3.06.67-3.71-1.29-3.71-1.29-.5-1.28-1.22-1.62-1.22-1.62-.99-.68.08-.67.08-.67 1.09.08 1.67 1.12 1.67 1.12.98 1.67 2.57 1.19 3.2.91.1-.71.38-1.19.69-1.46-2.44-.28-5.01-1.22-5.01-5.44 0-1.2.43-2.18 1.13-2.95-.11-.28-.49-1.42.11-2.96 0 0 .93-.3 3.05 1.13.89-.25 1.85-.38 2.8-.38.95 0 1.91.13 2.8.38 2.12-1.43 3.05-1.13 3.05-1.13.6 1.54.22 2.68.11 2.96.7.77 1.13 1.75 1.13 2.95 0 4.22-2.57 5.16-5.02 5.43.39.34.73 1.01.73 2.04 0 1.47-.01 2.65-.01 3.01 0 .29.2.63.76.52A10.99 10.99 0 0 0 23 11.5C23 5.24 18.27.5 12 .5Z"/>
</svg>
