<svg xmlns="http://www.w3.org/2000/svg" viewBox="0 0 64 64">
  <rect width="64" height="64" rx="10" fill="#3178C6"/>
  <path fill="#fff" d="M16 26h32v6H35v20h-6V32H16z" opacity=".9"/>
  <path fill="#fff" d="M34.8 39.8c1.1-2.3 3.4-3.7 6.7-3.7 3.6 0 6.1 1.5 7.6 4.3l-4.1 2.5c-.7-1.5-1.9-2.4-3.5-2.4-1.7 0-2.8.9-2.8 2.2 0 1.5 1.3 2 3.2 2.5l1.3.3c4 1 6.6 2.5 6.6 6.2 0 3.9-3.2 6.1-8 6.1-4.3 0-7.2-1.8-8.6-5l4.2-2.4c.8 1.9 2.2 2.9 4.4 2.9 1.9 0 3-.8 3-2.1 0-1.4-1.2-2-3.5-2.6l-1.2-.3c-3.9-.9-6.5-2.6-6.5-6.5 0-1.6.4-2.9 1.2-4.2Z"/>
</svg>
